<svg width="471" height="748" viewBox="0 0 471 748" fill="none" xmlns="http://www.w3.org/2000/svg">
<g clip-path="url(#clip0_174_526)">
<path d="M338.801 31.3835L326.875 159.293L120.382 153.417L125.403 0L338.801 31.3835Z" fill="#396C61"/>
<path d="M166.074 460.875H243.776C243.399 453.123 242.144 441.37 240.386 427.616C240.261 426.866 240.135 426.115 240.135 425.365C238.252 411.111 235.867 394.607 233.357 378.102C233.106 376.727 232.98 375.477 232.729 374.101C229.465 352.721 225.951 331.215 223.063 314.085C222.938 313.335 222.812 312.46 222.687 311.709C222.059 308.334 221.557 305.083 221.055 302.082C220.93 301.332 220.804 300.581 220.678 299.831C218.544 286.828 217.038 278.575 216.913 278.075C216.913 278.075 209.883 290.704 202.602 295.455C201.975 295.955 201.222 296.33 200.594 296.58C199.841 296.955 199.213 297.081 198.46 297.206C190.05 298.581 174.233 273.824 174.233 273.824C174.233 273.824 174.61 282.076 174.986 295.455C174.986 296.33 174.986 297.206 175.112 298.081C175.614 318.461 175.99 349.345 174.61 380.728C174.61 381.603 174.484 382.604 174.484 383.479C173.982 394.107 173.354 404.61 172.476 414.862C172.35 415.613 172.35 416.363 172.225 417.113C171.848 421.989 171.346 426.866 170.718 431.492C170.593 432.492 170.467 433.367 170.342 434.368C169.337 443.995 167.831 452.873 166.074 460.875Z" fill="#D03F23"/>
<path d="M202.602 347.094C204.611 355.471 211.64 360.473 218.293 365.099C223.817 368.85 228.838 373.226 233.231 378.227C232.98 376.852 232.855 375.602 232.604 374.226C228.963 370.475 224.946 367.099 220.678 364.099C214.025 359.472 206.494 354.846 204.736 346.469C202.979 338.342 206.494 329.839 211.766 323.713C215.03 319.962 218.921 316.961 222.938 314.335C222.812 313.585 222.687 312.71 222.561 311.959C217.164 315.335 212.142 319.336 208.251 324.463C203.481 330.59 200.719 339.217 202.602 347.094Z" fill="white"/>
<path d="M170.467 434.493C178.25 429.867 187.163 427.116 196.452 426.366C203.983 425.865 212.519 425.49 218.168 419.614C223.064 414.487 222.813 406.86 220.051 400.734C213.649 386.355 195.196 383.104 188.041 369.225C184.275 361.848 186.535 354.096 189.171 346.719C191.682 339.842 194.443 333.09 194.067 325.588C193.439 313.085 186.033 301.332 174.861 295.58C174.861 296.455 174.861 297.331 174.986 298.206C186.911 304.833 193.816 319.337 191.43 332.715C190.05 340.342 186.033 347.219 184.401 354.721C183.648 358.222 183.397 361.848 184.275 365.349C185.029 368.725 186.66 371.726 188.794 374.351C193.439 380.228 199.841 384.229 205.866 388.48C211.766 392.731 217.54 397.858 219.298 405.36C220.051 408.736 220.051 412.487 218.294 415.613C216.536 418.738 213.398 420.739 210.134 421.989C206.368 423.365 202.226 423.615 198.209 423.865C194.443 424.115 190.552 424.49 186.911 425.365C181.263 426.616 175.865 428.741 170.844 431.492C170.718 432.617 170.593 433.492 170.467 434.493Z" fill="white"/>
<path d="M172.35 417.238C174.735 417.238 177.246 417.113 179.631 416.863C184.401 416.363 190.05 415.988 194.066 412.987C198.209 409.986 197.832 404.985 195.322 401.109C192.435 396.608 188.167 392.607 184.275 388.981C181.137 386.105 177.873 383.354 174.61 380.728C174.61 381.604 174.484 382.604 174.484 383.479C177.497 385.855 180.509 388.355 183.271 391.106C186.786 394.357 190.552 397.983 193.188 401.984C194.443 403.985 195.573 406.485 194.569 408.736C193.815 410.611 191.932 411.737 190.175 412.487C185.782 414.237 180.509 414.612 175.865 414.863C174.735 414.988 173.605 414.988 172.35 414.988C172.476 415.738 172.35 416.488 172.35 417.238Z" fill="white"/>
<path d="M180.886 460.875H183.271C184.652 457.249 188.167 454.373 191.807 452.998C201.724 449.122 213.649 452.248 222.436 444.996C226.327 441.87 228.838 437.494 232.102 433.742C234.236 431.242 237.123 428.616 240.386 427.616C240.261 426.866 240.135 426.115 240.135 425.365C236.495 426.366 233.357 428.991 230.846 431.742C227.206 435.868 224.57 440.869 220.051 444.12C215.155 447.621 209.004 447.996 203.23 448.622C197.581 449.122 191.556 449.872 186.786 453.248C183.899 455.123 181.89 457.874 180.886 460.875Z" fill="white"/>
<path d="M200.594 296.83C202.1 298.331 203.983 299.581 205.866 300.581C210.511 302.957 215.908 303.457 220.929 302.207C220.804 301.457 220.678 300.706 220.553 299.956C216.034 301.082 211.264 300.706 206.996 298.706C205.364 297.956 203.858 296.955 202.477 295.705C201.849 296.08 201.221 296.455 200.594 296.83Z" fill="white"/>
<path d="M94.2718 159.293C94.2718 159.293 91.259 236.064 91.3846 242.691L136.198 307.458V323.838L143.73 380.978L132.809 460.875H166.074C180.258 397.108 174.233 273.949 174.233 273.949C164.819 259.07 162.308 271.199 162.308 271.199C158.668 262.571 153.898 265.947 153.898 265.947L128.541 245.442L122.892 166.42L120.507 165.795L101.678 161.044L94.2718 159.293Z" fill="#467B6C"/>
<path d="M136.324 307.458L91.51 242.691C91.6355 249.193 136.324 323.838 136.324 323.838V307.458Z" fill="#2B2B39"/>
<path d="M116.365 125.409C117.243 126.034 124.775 132.286 126.281 130.16C127.788 127.91 127.285 125.409 127.285 125.409C127.285 125.409 136.449 127.285 127.411 113.781C127.411 113.781 133.06 109.905 128.415 103.528C123.771 97.1514 122.139 96.9014 122.139 96.9014C122.139 96.9014 123.52 89.7744 120.884 84.0229C118.247 78.1463 113.603 94.6507 113.603 94.6507C113.603 94.6507 105.067 102.153 105.193 107.154C105.444 112.155 105.193 147.29 105.193 147.29L101.427 161.294L120.256 166.045V153.542C120.381 153.417 129.671 137.287 116.365 125.409Z" fill="#EA9949"/>
<path d="M313.193 169.046L310.557 168.171L278.296 247.067L232.855 271.324C232.855 271.324 227.08 267.197 224.068 276.2C224.068 276.2 217.666 271.824 216.913 278.326C217.164 280.076 241.893 421.364 243.776 461H280.932L268.756 394.232V316.711L263.735 305.333L306.791 266.072C308.423 264.072 309.678 262.446 310.808 261.196C320.097 250.443 336.792 177.173 336.792 177.173L332.273 175.673L313.193 169.046Z" fill="#467B6C"/>
<path d="M263.609 305.208L268.63 316.586C268.63 316.586 294.364 281.451 306.665 265.947L263.609 305.208Z" fill="#2B2B39"/>
<path d="M313.193 159.793V169.046L332.147 175.548L330.641 151.541L327.879 151.166L326.875 159.293L313.193 159.793Z" fill="#EA9949"/>
<path d="M326.499 127.66C326.499 127.66 321.352 133.536 322.105 135.162C322.858 136.912 324.867 137.412 324.867 137.412C324.867 137.412 323.109 140.163 324.239 141.413C325.369 142.664 328.884 142.164 328.884 142.164L327.754 151.041L330.516 151.416C330.516 151.416 342.566 136.412 338.047 129.66C338.047 129.66 340.307 124.284 336.792 122.283C336.792 122.283 340.432 114.656 334.03 113.656L330.641 113.281L330.516 114.406C330.516 114.406 322.607 122.408 323.109 125.034C323.612 127.66 326.499 127.66 326.499 127.66Z" fill="#EA9949"/>
<path d="M332.147 98.9019L330.641 113.531L334.03 113.906C334.03 113.906 336.415 104.028 337.043 101.278C337.671 98.5268 334.909 96.5263 332.147 98.9019Z" fill="#EA9949"/>
<path d="M235.993 281.577C238.378 304.083 240.637 326.464 243.022 348.97C245.407 371.351 247.667 393.607 250.052 415.988C251.307 428.491 252.688 441.12 253.943 453.623C254.069 454.373 252.939 454.498 252.814 453.873C250.429 431.367 248.169 408.986 245.784 386.48C243.399 364.099 241.14 341.843 238.754 319.462C237.499 306.958 236.118 294.33 234.863 281.827C234.863 281.076 235.993 280.826 235.993 281.577Z" fill="#2B2B39"/>
<path d="M162.308 276.325C163.689 299.331 164.693 322.338 165.32 345.469C165.948 368.475 166.325 391.481 166.45 414.488C166.45 427.366 166.45 440.37 166.199 453.248C166.199 453.998 165.069 453.873 165.069 453.123C165.32 430.117 165.32 407.111 165.069 384.104C164.693 361.223 164.065 338.342 163.186 315.461C162.684 302.457 162.057 289.579 161.304 276.575C161.178 275.825 162.308 275.575 162.308 276.325Z" fill="#2B2B39"/>
<path d="M228.712 277.45L228.838 290.829C228.838 291.579 227.708 291.454 227.708 290.704C227.708 286.203 227.708 281.702 227.583 277.325C227.583 276.575 228.712 276.7 228.712 277.45Z" fill="#2B2B39"/>
<path d="M221.432 279.951C222.561 283.452 223.817 287.078 224.946 290.579C225.197 291.204 224.193 291.704 223.942 291.079C222.812 287.578 221.557 283.952 220.427 280.451C220.176 279.701 221.181 279.201 221.432 279.951Z" fill="#2B2B39"/>
<path d="M169.589 276.075C169.714 275.325 170.844 275.45 170.718 276.2C170.342 279.826 169.84 283.452 169.463 287.078C169.338 287.828 168.208 287.703 168.333 286.953C168.71 283.327 169.212 279.701 169.589 276.075Z" fill="#2B2B39"/>
<path d="M155.404 271.949C156.282 275.2 157.036 278.451 157.914 281.576C158.04 282.327 157.036 282.452 156.785 281.826C155.906 278.576 155.153 275.325 154.274 272.199C154.023 271.449 155.153 271.199 155.404 271.949Z" fill="#2B2B39"/>
<path d="M113.477 109.655C119.001 113.281 123.52 118.157 126.909 123.784C127.286 124.409 126.281 124.909 125.905 124.284C122.641 118.782 118.122 114.156 112.85 110.655C112.222 110.155 112.85 109.28 113.477 109.655Z" fill="#2B2B39"/>
<path d="M116.239 102.403C120.005 105.154 123.52 108.405 126.532 112.031C127.034 112.531 126.156 113.281 125.654 112.781C122.766 109.28 119.377 106.029 115.611 103.403C114.984 102.903 115.611 101.903 116.239 102.403Z" fill="#2B2B39"/>
<path d="M115.235 94.0255C115.36 93.7755 115.737 93.5254 115.988 93.6504C117.745 94.5257 119.628 95.2759 121.386 96.1511C121.637 96.2762 121.888 96.5262 121.762 96.9013C121.637 97.1514 121.26 97.4015 121.009 97.2764C119.252 96.4012 117.369 95.651 115.611 94.7758C115.235 94.6507 115.109 94.4006 115.235 94.0255Z" fill="#2B2B39"/>
<path d="M325.495 137.037C329.135 134.536 332.775 131.911 336.416 129.41C337.043 129.035 337.796 129.91 337.169 130.285C333.528 132.786 329.888 135.412 326.248 137.912C325.62 138.288 324.992 137.412 325.495 137.037Z" fill="#2B2B39"/>
<path d="M327.629 127.034C330.516 125.284 333.403 123.408 336.29 121.533C336.918 121.158 337.42 122.158 336.792 122.533C333.905 124.409 331.018 126.159 328.131 128.035C327.503 128.41 327.001 127.41 327.629 127.034Z" fill="#2B2B39"/>
<path d="M330.265 114.531C331.143 113.781 332.147 113.031 333.026 112.406C333.277 112.281 333.654 112.281 333.779 112.531C333.905 112.781 333.905 113.156 333.654 113.281C332.775 114.031 331.771 114.781 330.892 115.406C330.641 115.531 330.265 115.531 330.139 115.281C330.014 115.156 330.014 114.781 330.265 114.531Z" fill="#2B2B39"/>
<path d="M329.009 141.788C331.143 140.413 333.403 139.038 335.537 137.662C335.788 137.537 336.164 137.662 336.29 137.912C336.415 138.162 336.29 138.538 336.039 138.663C333.905 140.038 331.645 141.413 329.511 142.789C329.26 142.914 328.884 142.789 328.758 142.539C328.507 142.289 328.633 142.039 329.009 141.788Z" fill="#2B2B39"/>
<path d="M312.314 174.047C318.716 178.674 324.992 183.175 331.394 187.801C332.022 188.176 331.394 189.176 330.767 188.676C324.365 184.05 318.088 179.549 311.686 174.923C311.059 174.547 311.812 173.547 312.314 174.047Z" fill="#2B2B39"/>
<path d="M330.265 178.799C331.018 178.548 331.645 178.799 332.147 179.299C332.273 179.424 332.273 179.549 332.399 179.549C332.775 179.549 332.901 179.799 332.901 180.174C332.901 180.799 332.524 181.424 332.022 181.799C331.394 182.174 330.767 182.299 330.139 181.924C329.888 181.799 329.511 181.549 329.386 181.299C329.135 181.049 329.009 180.674 329.009 180.299C329.135 179.674 329.637 179.049 330.265 178.799Z" fill="#2B2B39"/>
<path d="M98.9161 173.672C106.071 173.297 113.101 173.047 120.256 172.672C121.009 172.672 121.135 173.797 120.507 173.797C113.352 174.172 106.322 174.422 99.1672 174.797C98.414 174.797 98.163 173.672 98.9161 173.672Z" fill="#2B2B39"/>
<path d="M99.1673 167.17C99.5439 166.42 100.172 165.92 101.05 165.92H101.176C101.427 165.795 101.678 165.795 101.929 166.045C102.18 166.42 102.557 166.67 102.808 167.045C102.933 167.17 102.933 167.42 102.933 167.545C102.557 168.671 101.05 169.171 100.046 168.796C99.7949 168.671 99.5439 168.546 99.2928 168.296C99.1673 168.171 99.0417 167.921 99.0417 167.67C99.0417 167.545 99.1673 167.295 99.1673 167.17Z" fill="#2B2B39"/>
<path d="M149.002 379.728C151.261 382.854 153.647 385.98 155.906 389.106C156.283 389.731 155.529 390.356 155.027 389.856C152.768 386.73 150.383 383.604 148.123 380.478C147.747 379.853 148.5 379.103 149.002 379.728Z" fill="#2B2B39"/>
<path d="M161.806 192.802C158.417 197.304 156.659 203.055 157.538 208.682C158.417 214.183 161.806 219.309 166.701 222.06C166.952 221.435 167.455 220.935 167.831 220.435C183.397 205.056 206.619 197.804 228.336 201.43C228.21 197.804 226.578 194.303 224.193 191.427C221.683 188.426 218.293 186.301 214.779 184.675C211.013 183.05 206.87 181.924 202.728 182.299C196.703 182.8 191.179 186.176 185.028 186.676C180.007 187.051 174.861 185.425 170.091 186.801C166.827 187.801 163.94 190.052 161.806 192.802Z" fill="#396C61"/>
<path d="M165.32 245.567C164.693 246.317 164.191 247.317 164.316 248.317C164.567 250.568 167.329 251.443 168.333 253.444C168.835 254.444 168.835 255.569 169.086 256.695C169.839 259.195 172.476 260.821 174.986 260.446L175.488 251.068L175.739 247.067C175.739 247.067 170.718 243.816 168.835 238.815C168.835 240.44 168.333 242.066 167.329 243.316C166.701 244.066 165.948 244.816 165.32 245.567Z" fill="#2B2B39"/>
<path d="M166.701 222.06C166.45 222.685 166.576 223.436 166.827 224.061C167.329 226.561 168.082 229.062 169.086 231.438L169.212 231.563C169.84 230.688 170.718 230.313 171.848 230.187C174.986 228.187 178.25 226.436 181.639 224.936C186.66 222.685 191.933 221.06 197.33 219.81C202.602 218.684 208 217.934 213.398 217.559C217.666 217.309 221.934 217.184 226.202 217.184C228.336 217.184 230.47 217.309 232.604 217.059C232.855 217.059 233.106 217.059 233.357 216.934C233.608 216.934 233.859 216.809 234.11 216.684C234.361 216.434 234.361 216.059 234.361 215.809C234.487 212.058 233.984 208.307 232.855 204.681C232.604 203.93 232.353 203.18 231.725 202.555C230.972 201.805 229.717 201.555 228.587 201.305H228.461C206.87 197.679 183.522 204.931 167.957 220.31C167.454 220.81 166.952 221.31 166.701 222.06Z" fill="#396C61"/>
<path d="M171.722 230.312C173.605 230.187 175.99 231.188 178.375 233.563L181.514 225.061C178.124 226.561 174.861 228.312 171.722 230.312Z" fill="#2B2B39"/>
<path d="M168.208 236.064C168.333 237.064 168.459 237.94 168.835 238.815C170.718 243.816 175.739 247.067 175.739 247.067L175.488 251.068L174.986 260.446L174.233 274.074C174.233 274.074 190.175 298.831 198.46 297.456C206.87 296.08 216.913 278.2 216.913 278.2C185.53 279.951 178.626 252.068 178.501 251.318C178.877 252.068 188.543 272.949 208 273.324C210.26 273.324 212.268 272.824 214.151 271.824C226.829 264.822 229.842 236.064 230.219 230.312C222.185 228.687 215.155 220.06 213.398 217.809C208 218.184 202.602 218.934 197.33 220.06C191.932 221.31 186.66 222.935 181.639 225.186L178.501 233.688C176.241 231.313 173.731 230.312 171.848 230.438C170.844 230.563 169.839 230.938 169.212 231.813C168.459 232.688 167.957 234.063 168.208 236.064Z" fill="#EA9949"/>
<path d="M207.875 273.324C188.543 272.949 178.752 252.068 178.375 251.318C178.627 252.193 185.405 279.951 216.787 278.2L214.025 271.824C212.143 272.824 210.134 273.324 207.875 273.324Z" fill="#2B2B39"/>
<path d="M210.134 235.064L207.874 248.942C207.874 248.942 216.912 252.068 221.432 248.942C225.951 245.942 214.151 247.317 210.134 235.064Z" fill="#D87319"/>
<path d="M230.093 230.187C231.348 230.437 232.604 230.562 233.984 230.437C244.905 229.312 233.984 221.685 233.984 221.685C233.984 221.685 239.759 219.184 232.478 217.184C230.344 217.434 228.21 217.434 226.076 217.309C221.808 217.184 217.54 217.309 213.272 217.684C215.03 219.935 222.059 228.562 230.093 230.187Z" fill="#2B2B39"/>
<path d="M170.844 234.564C171.471 233.313 173.103 233.563 173.982 234.314C174.484 234.814 174.986 235.314 175.363 235.939C175.739 236.564 176.116 237.189 176.367 237.94C176.744 239.19 176.493 240.69 175.363 241.566C174.359 242.316 172.852 242.316 171.974 241.191C171.095 239.94 171.597 238.19 172.978 237.439C173.605 237.064 174.108 238.065 173.48 238.44C172.852 238.815 172.476 239.69 172.852 240.315C173.229 240.94 174.108 240.94 174.735 240.44C175.488 239.815 175.488 238.815 175.237 238.065C174.986 237.064 174.359 236.314 173.731 235.564C173.354 235.064 172.225 234.189 171.723 235.064C171.597 235.314 171.22 235.314 170.969 235.189C170.718 235.064 170.718 234.814 170.844 234.564Z" fill="#2B2B39"/>
<path d="M201.221 253.694C204.485 254.319 207.623 255.944 210.134 258.195C210.636 258.695 210.008 259.57 209.506 259.07C207.121 256.945 204.234 255.444 201.096 254.819C200.468 254.694 200.468 253.569 201.221 253.694Z" fill="#2B2B39"/>
<path d="M166.952 220.56C173.229 214.933 180.509 210.307 188.292 207.056C196.075 203.805 204.36 201.805 212.77 201.179C217.54 200.804 222.31 200.929 227.08 201.555C227.834 201.68 227.708 202.805 226.955 202.68C218.67 201.68 210.26 202.18 202.1 203.93C193.941 205.681 186.033 208.807 178.878 213.058C174.861 215.433 171.095 218.309 167.58 221.435C167.203 221.935 166.45 221.06 166.952 220.56Z" fill="#2B2B39"/>
<path d="M227.582 204.305C227.833 204.305 228.21 204.43 228.21 204.806C228.336 206.681 228.461 208.557 228.712 210.432C228.712 210.682 228.587 211.057 228.21 211.057C227.959 211.057 227.582 210.932 227.582 210.557C227.457 208.682 227.331 206.806 227.08 204.931C227.08 204.681 227.331 204.43 227.582 204.305Z" fill="#2B2B39"/>
<path d="M228.085 212.808C228.461 212.808 228.587 213.058 228.587 213.433V215.808C228.587 216.059 228.21 216.309 227.959 216.309C227.582 216.309 227.457 216.059 227.457 215.683V213.308C227.457 212.933 227.708 212.683 228.085 212.808Z" fill="#2B2B39"/>
<path d="M224.695 208.432C225.072 208.432 225.197 208.682 225.197 209.057C225.197 210.432 225.323 211.808 225.323 213.308C225.323 213.558 224.946 213.808 224.695 213.808C224.319 213.808 224.193 213.558 224.193 213.183C224.193 211.808 224.068 210.432 224.068 208.932C224.068 208.557 224.444 208.432 224.695 208.432Z" fill="#2B2B39"/>
<path d="M172.978 218.684C173.354 218.684 173.605 218.809 173.605 219.184C173.982 220.435 174.359 221.685 174.735 222.935C174.861 223.186 174.61 223.561 174.233 223.561C173.856 223.561 173.605 223.436 173.605 223.061C173.229 221.81 172.852 220.56 172.476 219.309C172.476 219.059 172.727 218.809 172.978 218.684Z" fill="#2B2B39"/>
<path d="M176.743 220.81C176.994 220.685 177.371 220.81 177.497 221.06C177.748 221.935 178.124 222.685 178.375 223.561C178.501 223.811 178.375 224.186 178.124 224.311C177.873 224.436 177.497 224.311 177.371 224.061C177.12 223.185 176.743 222.435 176.492 221.56C176.367 221.31 176.492 220.935 176.743 220.81Z" fill="#2B2B39"/>
<path d="M180.133 216.559C180.509 216.559 180.635 216.684 180.76 217.059C181.137 218.059 181.388 219.185 181.765 220.185C181.89 220.435 181.639 220.81 181.263 220.81C180.886 220.81 180.76 220.685 180.635 220.31C180.258 219.31 180.007 218.184 179.631 217.184C179.505 216.934 179.756 216.559 180.133 216.559Z" fill="#2B2B39"/>
<path d="M226.076 223.186C228.21 224.186 230.219 225.061 232.352 226.061C232.98 226.311 232.604 227.437 231.976 227.062L225.7 224.186C225.072 223.936 225.448 222.935 226.076 223.186Z" fill="white"/>
<path d="M224.444 220.56C226.704 220.81 229.089 221.185 231.348 221.435C232.101 221.56 231.976 222.685 231.223 222.56C228.963 222.31 226.578 221.935 224.319 221.685C223.565 221.56 223.691 220.435 224.444 220.56Z" fill="white"/>
<path d="M218.795 229.812C221.055 229.562 223.314 229.312 225.574 228.937C226.453 228.812 227.457 229.312 227.582 230.312C227.708 231.188 227.206 232.188 226.202 232.313C223.942 232.563 221.683 232.813 219.423 233.188C218.544 233.313 217.54 232.813 217.415 231.813C217.415 230.938 217.917 229.937 218.795 229.812Z" fill="#2B2B39"/>
<path d="M193.313 226.561C193.69 225.686 194.569 225.186 195.447 225.561C198.586 226.686 201.724 227.812 204.862 229.062C205.741 229.312 206.243 230.437 205.866 231.188C205.49 232.063 204.611 232.563 203.732 232.188C200.594 231.063 197.456 229.937 194.318 228.687C193.564 228.437 193.062 227.437 193.313 226.561Z" fill="#2B2B39"/>
<path d="M198.586 239.565C196.991 239.565 195.698 237.942 195.698 235.939C195.698 233.936 196.991 232.313 198.586 232.313C200.18 232.313 201.473 233.936 201.473 235.939C201.473 237.942 200.18 239.565 198.586 239.565Z" fill="#2B2B39"/>
<path d="M221.808 240.815C220.214 240.815 218.921 239.192 218.921 237.189C218.921 235.187 220.214 233.563 221.808 233.563C223.403 233.563 224.695 235.187 224.695 237.189C224.695 239.192 223.403 240.815 221.808 240.815Z" fill="#2B2B39"/>
<path d="M409.096 137.787L408.971 138.162L427.047 141.288L428.302 138.913C427.8 138.788 427.423 138.663 426.921 138.538C424.913 137.912 422.904 137.037 421.775 135.287C421.272 134.536 421.021 133.786 421.147 132.911C421.398 131.661 422.528 130.66 423.783 130.285C425.038 129.91 426.419 130.035 427.674 130.16C426.168 129.535 424.913 128.285 424.285 126.909C424.034 126.409 423.783 125.784 423.909 125.159C424.034 124.284 424.787 123.533 425.666 123.158C426.545 122.783 427.549 122.908 428.428 122.908C427.047 122.033 425.917 120.658 425.164 119.157C424.913 118.782 424.787 118.282 424.913 117.907C425.038 117.032 426.043 116.657 426.921 116.532C428.176 116.281 429.306 116.281 430.562 116.281C428.93 115.281 427.674 113.906 426.545 112.28C426.043 111.53 425.666 110.655 426.043 109.78C426.294 109.155 427.047 108.779 427.8 108.529L419.515 106.779C419.515 106.779 418.26 96.4011 414.494 95.4008C410.728 94.4005 407.59 99.902 409.975 109.28C412.234 118.657 409.096 137.787 409.096 137.787Z" fill="#E69773"/>
<path d="M419.013 31.3835H431.064V168.796H419.013V31.3835Z" fill="#D03F23"/>
<path d="M486.296 21.6309L476.379 95.2758H367.044L362.776 23.3813L486.296 21.6309Z" fill="#467B6C"/>
<path d="M421.147 132.911C421.022 133.786 421.273 134.536 421.775 135.287C422.905 137.037 425.038 137.912 426.921 138.538C427.424 138.663 427.8 138.788 428.302 138.913C431.189 139.788 434.328 140.163 436.838 138.663C437.215 138.412 437.591 138.162 437.842 137.912C438.344 137.162 438.093 136.287 437.717 135.537C437.215 134.786 436.587 134.286 435.834 133.911C437.089 133.911 438.344 133.911 439.349 133.411C440.478 132.911 441.357 131.661 441.106 130.535C440.73 128.91 438.847 128.285 437.842 127.034C439.349 126.159 441.608 126.409 442.612 124.909C443.491 123.783 443.115 122.033 442.11 120.908C441.106 119.782 439.725 119.282 438.47 118.657C439.725 118.032 441.106 117.282 441.734 115.906C442.236 114.906 441.985 113.656 441.483 112.53C439.851 111.28 438.093 110.03 436.085 109.28C433.449 108.154 430.562 107.654 427.8 108.404C427.047 108.654 426.419 109.029 426.043 109.655C425.666 110.53 426.168 111.405 426.545 112.155C427.549 113.781 428.93 115.156 430.562 116.156C429.306 116.156 428.177 116.156 426.921 116.406C426.043 116.532 425.038 116.907 424.913 117.782C424.787 118.282 425.038 118.657 425.164 119.032C425.917 120.533 427.047 121.783 428.428 122.783C427.549 122.783 426.545 122.783 425.666 123.033C424.787 123.283 424.034 124.034 423.909 125.034C423.783 125.659 424.034 126.284 424.285 126.784C425.038 128.16 426.294 129.41 427.675 130.035C426.294 129.91 425.038 129.785 423.783 130.16C422.528 130.535 421.398 131.536 421.147 132.911Z" fill="#E69773"/>
<path d="M425.541 129.535C424.662 128.285 423.909 126.784 424.16 125.284C424.411 124.033 425.29 122.908 426.419 122.533C425.29 121.158 424.411 119.407 425.039 117.532C425.29 116.531 426.168 115.781 427.047 115.531C425.415 113.531 425.541 110.405 427.8 108.779C428.428 108.404 429.056 109.154 428.553 109.655C426.419 111.28 426.545 114.531 428.93 115.656C431.566 116.406 434.202 117.032 436.964 117.782C437.717 118.032 437.215 119.032 436.587 118.782C434.077 118.157 431.692 117.407 429.181 116.782C429.056 116.782 428.93 116.782 428.804 116.782C428.679 116.782 428.553 116.656 428.553 116.656C428.428 116.656 428.302 116.531 428.177 116.531C428.177 116.531 428.051 116.531 428.051 116.406C427.047 116.281 426.168 117.407 426.043 118.532C425.917 120.157 427.047 121.408 428.051 122.533L428.177 122.658C431.189 123.783 434.077 124.909 437.089 126.034C437.717 126.284 437.34 127.409 436.713 127.034C433.575 125.784 430.562 124.659 427.424 123.408C427.298 123.408 427.298 123.283 427.173 123.283C426.043 123.408 425.29 124.659 425.29 125.659C425.29 127.034 426.168 128.285 427.047 129.285C429.683 130.285 432.319 131.285 434.955 132.161C435.583 132.411 435.206 133.411 434.579 133.161C432.194 132.286 429.683 131.41 427.298 130.41C427.173 130.535 427.047 130.535 426.796 130.41C424.411 129.41 421.9 131.536 422.654 134.036C423.281 136.037 425.541 137.037 427.298 137.787C427.926 138.037 427.549 139.163 426.922 138.787C424.536 137.787 421.649 136.287 421.398 133.411C421.147 131.41 423.156 129.535 425.541 129.535Z" fill="#2B2B39"/>
<path d="M325.746 427.491L303.778 460.875H405.331C405.331 460.875 397.297 402.609 393.154 388.105C393.154 388.105 403.824 379.853 397.046 365.599C396.669 366.474 378.216 421.489 346.583 422.74C336.541 423.115 328.005 419.114 320.85 413.487L325.746 427.491Z" fill="#396C61"/>
<path d="M382.484 332.715L358.885 363.223L330.014 332.34L357.253 344.969L382.484 332.715Z" fill="#396C61"/>
<path d="M293.736 343.593C293.736 350.595 300.64 370.6 311.938 388.105C319.72 400.108 329.637 410.861 340.683 415.488C358.383 422.615 382.233 389.856 396.92 365.724C404.954 352.596 410.226 342.093 410.226 342.093L403.699 337.842L387.003 326.839L394.661 315.711C394.661 315.711 391.773 292.954 397.673 287.953C399.054 286.828 400.309 285.827 401.439 285.077L431.691 142.163L427.047 141.413L408.971 138.287L406.586 137.912C401.565 158.168 363.655 270.323 355.119 297.456C354.492 297.581 353.738 297.581 352.985 297.581L353.864 301.207L339.177 300.707L321.98 300.081L318.842 299.956L318.339 308.959L318.214 312.71C318.214 312.585 293.736 331.715 293.736 343.593Z" fill="#396C61"/>
<path d="M312.063 387.98L320.976 413.487C328.005 419.114 336.667 423.115 346.709 422.74C378.342 421.489 396.92 366.474 397.171 365.599C382.484 389.606 358.508 422.49 340.935 415.363C329.637 410.861 319.846 399.983 312.063 387.98Z" fill="#2B2B39"/>
<path d="M330.139 332.34L359.011 363.223L382.484 332.715L357.379 344.969L330.139 332.34Z" fill="#2B2B39"/>
<path d="M352.483 302.332C352.734 302.332 353.111 302.457 353.111 302.832C353.236 304.958 353.362 306.958 353.487 309.084C353.487 309.334 353.362 309.709 352.985 309.709C352.734 309.709 352.358 309.584 352.358 309.209C352.232 307.083 352.107 305.083 351.981 302.957C351.981 302.707 352.232 302.457 352.483 302.332Z" fill="#2B2B39"/>
<path d="M347.713 302.082C348.09 302.082 348.215 302.332 348.215 302.707V306.083C348.215 306.333 347.839 306.583 347.587 306.583C347.211 306.583 347.085 306.333 347.085 305.958V302.582C347.085 302.207 347.336 301.957 347.713 302.082Z" fill="#2B2B39"/>
<path d="M347.713 308.583C348.09 308.583 348.215 308.834 348.215 309.209V312.334C348.215 312.585 347.839 312.835 347.587 312.835C347.211 312.835 347.085 312.585 347.085 312.209V309.084C347.085 308.834 347.336 308.583 347.713 308.583Z" fill="#2B2B39"/>
<path d="M342.943 305.083C342.943 304.833 343.32 304.583 343.571 304.583C343.947 304.583 344.073 304.833 344.073 305.208C343.947 306.833 343.947 308.584 343.822 310.209C343.822 310.459 343.445 310.709 343.194 310.709C342.817 310.709 342.692 310.459 342.692 310.084C342.817 308.334 342.817 306.708 342.943 305.083Z" fill="#2B2B39"/>
<path d="M326.499 301.707C326.75 301.707 327.126 301.832 327.126 302.207C327.252 304.082 327.377 305.958 327.503 307.833C327.503 308.083 327.377 308.459 327.001 308.459C326.75 308.459 326.373 308.334 326.373 307.958C326.248 306.083 326.122 304.207 325.997 302.332C325.997 302.082 326.122 301.832 326.499 301.707Z" fill="#2B2B39"/>
<path d="M331.52 305.083C331.52 304.833 331.771 304.583 332.148 304.583C332.399 304.583 332.65 304.833 332.65 305.208C332.399 306.708 332.273 308.334 332.022 309.834C332.022 310.084 331.771 310.334 331.394 310.334C331.143 310.334 330.892 310.084 330.892 309.709C331.143 308.083 331.394 306.583 331.52 305.083Z" fill="#2B2B39"/>
<path d="M300.263 350.845C301.393 353.721 302.523 356.722 303.527 359.597C303.778 360.223 302.774 360.723 302.523 360.097L299.259 351.345C299.008 350.595 300.012 350.095 300.263 350.845Z" fill="#2B2B39"/>
<path d="M305.912 363.974C306.163 363.849 306.54 363.974 306.665 364.224L310.055 370.1C310.18 370.35 310.055 370.725 309.803 370.85C309.552 370.976 309.176 370.85 309.05 370.6C307.921 368.6 306.791 366.599 305.661 364.724C305.536 364.474 305.661 364.099 305.912 363.974Z" fill="#2B2B39"/>
<path d="M307.042 356.096C308.297 358.347 309.553 360.723 310.808 362.973C311.184 363.598 310.18 364.099 309.804 363.473C308.548 361.223 307.293 358.847 306.038 356.597C305.661 355.971 306.665 355.471 307.042 356.096Z" fill="#2B2B39"/>
<path d="M388.635 369.725L392.276 364.224C392.652 363.599 393.531 364.224 393.154 364.849C391.899 366.724 390.769 368.475 389.514 370.35C389.137 370.976 388.133 370.35 388.635 369.725Z" fill="#2B2B39"/>
<path d="M382.61 380.603C383.614 379.103 384.744 377.477 385.748 375.977C386.125 375.352 387.129 375.977 386.627 376.602L383.489 381.228C383.112 381.854 382.108 381.228 382.61 380.603Z" fill="#2B2B39"/>
<path d="M380.978 373.101C382.108 370.976 383.363 368.975 384.493 366.85C384.618 366.599 384.995 366.599 385.246 366.724C385.497 366.975 385.497 367.225 385.371 367.475L381.857 373.726C381.731 373.976 381.354 373.976 381.103 373.851C380.852 373.726 380.852 373.351 380.978 373.101Z" fill="#2B2B39"/>
<path d="M406.962 149.666C407.715 147.29 408.469 144.914 409.096 142.539C409.347 141.789 410.351 142.289 410.1 142.914C409.347 145.289 408.594 147.665 407.966 150.041C407.715 150.791 406.711 150.416 406.962 149.666Z" fill="#2B2B39"/>
<path d="M404.828 160.293C405.456 158.168 406.084 156.167 406.711 154.042C406.962 153.291 407.966 153.792 407.715 154.417C407.088 156.542 406.46 158.543 405.832 160.668C405.581 161.419 404.577 161.044 404.828 160.293Z" fill="#2B2B39"/>
<path d="M408.971 156.042C409.849 153.792 410.854 151.416 411.732 149.165C411.983 148.54 413.113 148.915 412.737 149.54C411.858 151.791 410.854 154.167 409.975 156.417C409.724 157.042 408.594 156.667 408.971 156.042Z" fill="#2B2B39"/>
<path d="M426.796 149.79C427.298 147.915 427.8 146.039 428.302 144.164C428.428 143.914 428.804 143.789 429.055 143.789C429.306 143.914 429.432 144.164 429.432 144.539C428.93 146.415 428.428 148.29 427.926 150.166C427.8 150.416 427.423 150.541 427.172 150.541C426.796 150.416 426.796 150.041 426.796 149.79Z" fill="#2B2B39"/>
<path d="M423.532 159.418C424.034 157.793 424.536 156.042 425.038 154.417C425.164 154.167 425.541 154.042 425.792 154.042C426.043 154.167 426.168 154.417 426.168 154.792C425.666 156.417 425.164 158.168 424.662 159.793C424.536 160.043 424.16 160.168 423.909 160.168C423.532 160.043 423.407 159.668 423.532 159.418Z" fill="#2B2B39"/>
<path d="M420.645 154.042C421.273 151.916 422.026 149.791 422.653 147.79C422.904 147.165 423.909 147.54 423.658 148.165C423.03 150.291 422.277 152.416 421.649 154.417C421.524 155.167 420.394 154.792 420.645 154.042Z" fill="#2B2B39"/>
<path d="M394.912 420.239C395.163 423.115 395.539 426.116 395.79 428.991C395.916 429.741 394.786 429.867 394.661 429.241C394.41 426.366 394.033 423.365 393.782 420.489C393.782 419.614 394.912 419.489 394.912 420.239Z" fill="#2B2B39"/>
<path d="M395.665 432.242C396.041 432.242 396.167 432.492 396.167 432.867C396.167 434.868 396.167 436.868 396.292 438.744C396.292 438.994 395.916 439.244 395.665 439.244C395.288 439.244 395.163 438.994 395.163 438.619C395.163 436.618 395.163 434.618 395.037 432.742C395.037 432.367 395.288 432.242 395.665 432.242Z" fill="#2B2B39"/>
<path d="M390.644 427.241C391.02 427.241 391.146 427.491 391.146 427.866V433.743C391.146 433.993 390.769 434.243 390.518 434.243C390.142 434.243 390.016 433.993 390.016 433.617V427.741C390.016 427.491 390.267 427.241 390.644 427.241Z" fill="#2B2B39"/>
<path d="M321.478 441.995L326.373 434.493C326.75 433.868 327.628 434.493 327.252 435.118C325.62 437.619 323.988 440.119 322.356 442.62C321.98 443.245 321.101 442.62 321.478 441.995Z" fill="#2B2B39"/>
<path d="M315.452 450.247C316.582 448.872 317.586 447.621 318.716 446.246C318.967 445.996 319.218 445.871 319.469 446.121C319.72 446.246 319.846 446.621 319.595 446.871C318.465 448.246 317.461 449.497 316.331 450.872C316.08 451.122 315.829 451.247 315.578 450.997C315.452 450.872 315.327 450.497 315.452 450.247Z" fill="#2B2B39"/>
<path d="M324.114 447.871C325.118 445.871 326.248 443.87 327.252 441.87C327.377 441.62 327.628 441.37 328.005 441.495C328.256 441.62 328.507 441.995 328.382 442.245C327.377 444.245 326.248 446.246 325.243 448.246C325.118 448.496 324.867 448.747 324.49 448.621C324.239 448.496 323.988 448.121 324.114 447.871Z" fill="#2B2B39"/>
<path d="M380.853 334.091C382.61 331.59 384.367 328.964 386.125 326.464C386.501 325.838 387.505 326.464 387.003 327.089C385.246 329.589 383.489 332.215 381.731 334.716C381.355 335.341 380.476 334.716 380.853 334.091Z" fill="#2B2B39"/>
<path d="M384.744 336.341C385.748 334.716 386.627 333.09 387.631 331.465C387.756 331.215 388.133 331.215 388.384 331.34C388.635 331.59 388.635 331.84 388.51 332.09C387.505 333.716 386.627 335.341 385.622 336.966C385.497 337.217 385.12 337.217 384.869 337.091C384.618 336.841 384.618 336.591 384.744 336.341Z" fill="#2B2B39"/>
<path d="M387.757 338.342C388.51 336.841 389.263 335.341 390.016 333.84C390.142 333.59 390.393 333.34 390.769 333.465C391.02 333.59 391.271 333.965 391.146 334.216C390.393 335.716 389.639 337.216 388.886 338.717C388.761 338.967 388.51 339.217 388.133 339.092C387.757 338.967 387.631 338.592 387.757 338.342Z" fill="#2B2B39"/>
<path d="M356.877 301.457C357.504 304.583 358.006 307.708 358.634 310.834C366.542 318.086 374.576 325.213 382.484 332.465C382.986 332.965 382.359 333.841 381.857 333.34C374.074 326.213 366.291 319.212 358.508 312.085C358.257 312.21 357.755 312.085 357.755 311.71C357.128 308.334 356.5 304.958 355.872 301.582C355.621 300.957 356.751 300.707 356.877 301.457Z" fill="#2B2B39"/>
<path d="M369.681 241.19C369.806 241.69 370.685 244.941 371.563 249.818C374.702 243.941 376.208 237.314 375.957 230.688C375.831 228.687 375.204 226.186 373.321 225.811C372.191 225.561 371.061 226.186 369.932 226.686C366.291 228.312 362.023 228.562 358.257 227.562C354.115 226.436 350.6 223.811 346.709 222.185C336.29 217.684 323.361 219.935 315.201 227.562C311.812 230.813 309.176 234.814 305.159 237.314C299.51 240.815 292.481 240.565 285.828 240.69C279.175 240.815 271.894 241.565 267.501 246.442C259.216 255.444 265.618 271.949 257.333 280.826C253.944 284.452 248.044 286.578 247.165 291.579C246.412 295.455 249.299 299.206 252.688 301.207C256.078 303.207 260.094 303.957 263.86 305.333C267.752 306.833 271.392 309.084 274.405 311.96C277.166 314.585 279.551 317.711 282.815 319.337C287.46 321.712 293.234 320.712 297.753 318.086C301.519 315.836 304.657 312.46 308.799 311.209C312.063 310.209 315.703 310.584 318.842 309.084L319.344 300.081L322.482 300.206L323.988 272.949C318.716 272.199 315.327 257.07 321.227 253.569C325.62 250.943 328.633 254.319 329.763 256.069C331.645 256.444 333.528 255.069 334.909 253.694C337.42 251.068 339.303 247.692 342.441 245.817C346.081 243.816 350.475 244.066 354.617 244.691C358.76 245.191 363.153 245.942 366.919 244.316C367.798 243.441 369.178 242.441 369.681 241.19Z" fill="#2B2B39"/>
<path d="M323.612 272.699L322.105 299.956L339.303 300.581L329.888 285.202C332.65 288.828 342.441 297.831 353.111 297.455C357.253 297.33 361.647 295.83 365.664 291.954C373.948 284.202 374.074 268.448 372.693 256.569C372.442 254.069 372.066 251.693 371.689 249.693C370.81 244.941 369.932 241.565 369.806 241.065C369.304 242.316 367.923 243.316 366.668 243.816C362.776 245.316 358.508 244.691 354.366 244.191C350.224 243.691 345.83 243.316 342.19 245.316C339.052 247.192 337.043 250.443 334.658 253.193C333.277 254.569 331.394 255.944 329.511 255.569C328.382 253.819 325.369 250.443 320.976 253.068C314.95 256.694 318.214 271.949 323.612 272.699Z" fill="#E69773"/>
<path d="M329.888 285.202L339.303 300.581L353.99 301.081L353.111 297.455C342.441 297.706 332.524 288.703 329.888 285.202Z" fill="#2B2B39"/>
<path d="M341.06 262.821C337.922 262.821 335.537 265.322 335.537 268.323C335.537 271.449 338.048 273.824 341.06 273.824C344.073 273.824 346.583 271.324 346.583 268.323C346.583 265.322 344.073 262.821 341.06 262.821Z" fill="#AF4E4A"/>
<path d="M353.989 276.7C353.487 280.076 354.743 283.202 357.002 283.452C359.136 283.827 361.27 281.201 361.772 277.825C362.274 274.449 361.019 271.323 358.76 271.073C356.751 270.698 354.492 273.324 353.989 276.7Z" fill="#2B2B39"/>
<path d="M356.626 253.319C356.123 254.944 355.747 256.569 355.872 258.32C355.872 260.07 356.374 261.946 357.63 263.071C358.76 264.197 360.391 264.447 361.898 264.697C363.781 264.947 365.789 265.072 367.672 264.572C368.174 264.447 368.802 264.322 369.178 263.946C369.555 263.571 369.806 262.946 369.68 262.446C369.429 261.696 368.676 261.446 368.049 261.071C363.655 259.445 359.764 256.82 356.626 253.319Z" fill="#AF4E4A"/>
<path d="M271.643 253.444C272.145 252.944 272.898 253.819 272.396 254.319C269.886 256.945 268.756 260.571 269.132 264.072C269.258 264.822 268.128 264.947 268.003 264.322C267.501 260.321 268.881 256.32 271.643 253.444Z" fill="white"/>
<path d="M268.128 268.823C268.128 268.073 269.258 268.198 269.258 268.948C269.133 271.073 269.007 273.074 269.007 275.2C269.007 275.95 267.877 275.825 267.877 275.075C267.877 272.949 268.003 270.948 268.128 268.823Z" fill="white"/>
<path d="M273.401 263.196C273.526 262.446 274.656 262.571 274.53 263.321C274.279 265.322 273.903 267.323 273.652 269.323C273.526 270.073 272.396 269.948 272.522 269.198C272.773 267.197 273.024 265.197 273.401 263.196Z" fill="white"/>
<path d="M303.025 305.458C306.54 304.708 310.18 303.957 313.695 303.207C314.448 303.082 314.574 304.207 313.946 304.332C310.431 305.083 306.791 305.833 303.276 306.583C302.523 306.708 302.272 305.583 303.025 305.458Z" fill="white"/>
<path d="M295.242 312.71C296.749 311.334 298.13 309.959 299.636 308.709C299.887 308.459 300.264 308.584 300.389 308.834C300.64 309.084 300.515 309.459 300.263 309.584C298.757 310.959 297.376 312.335 295.87 313.585C295.619 313.835 295.242 313.71 295.117 313.46C294.866 313.335 294.991 312.96 295.242 312.71Z" fill="white"/>
<path d="M295.493 307.083C297.376 305.833 299.259 304.582 301.142 303.332C301.393 303.207 301.77 303.207 301.895 303.457C302.021 303.707 302.021 304.082 301.77 304.207C299.887 305.458 298.004 306.708 296.121 307.958C295.87 308.083 295.493 308.083 295.368 307.833C295.242 307.708 295.242 307.208 295.493 307.083Z" fill="white"/>
<path d="M331.645 248.067C333.654 245.692 335.788 243.191 337.796 240.815C338.298 240.315 339.177 240.94 338.675 241.44C336.667 243.816 334.533 246.317 332.524 248.692C332.022 249.192 331.143 248.567 331.645 248.067Z" fill="white"/>
<path d="M328.758 246.442C330.014 244.191 331.269 241.94 332.524 239.565C332.65 239.315 333.026 239.315 333.277 239.44C333.528 239.69 333.528 239.94 333.403 240.19L329.637 247.067C329.512 247.317 329.135 247.317 328.884 247.192C328.633 247.067 328.507 246.692 328.758 246.442Z" fill="white"/>
<path d="M362.4 250.693C364.408 249.818 366.417 248.817 368.425 247.942C369.178 247.567 370.308 247.942 370.685 248.692C371.061 249.568 370.685 250.568 369.932 250.943C367.923 251.818 365.915 252.818 363.906 253.694C363.153 254.069 362.023 253.694 361.647 252.943C361.27 252.068 361.647 251.068 362.4 250.693Z" fill="#2B2B39"/>
<path d="M341.06 249.068C341.437 248.192 342.315 247.817 343.194 248.067C345.83 248.817 348.466 249.568 351.228 250.443C352.107 250.693 352.609 251.818 352.232 252.568C351.856 253.444 350.977 253.819 350.098 253.569C347.462 252.819 344.826 252.068 342.064 251.193C341.186 251.068 340.684 249.943 341.06 249.068Z" fill="#2B2B39"/>
<path d="M367.798 259.195C366.55 259.195 365.538 257.908 365.538 256.319C365.538 254.731 366.55 253.444 367.798 253.444C369.046 253.444 370.057 254.731 370.057 256.319C370.057 257.908 369.046 259.195 367.798 259.195Z" fill="#2B2B39"/>
<path d="M346.584 259.195C345.336 259.195 344.324 257.908 344.324 256.319C344.324 254.731 345.336 253.444 346.584 253.444C347.831 253.444 348.843 254.731 348.843 256.319C348.843 257.908 347.831 259.195 346.584 259.195Z" fill="#2B2B39"/>
<path d="M369.931 258.32C369.931 258.32 366.668 277.45 383.991 289.578L391.397 286.328C376.333 271.949 376.961 255.069 376.961 255.069C372.316 257.195 369.931 258.32 369.931 258.32Z" fill="white"/>
<path d="M391.397 286.328L394.661 284.827L410.477 277.95L406.586 272.949C393.405 256.57 395.414 246.692 395.414 246.692C387.38 250.193 381.229 253.069 376.835 254.944C376.835 255.069 376.208 271.949 391.397 286.328Z" fill="#D03F23"/>
<path d="M394.66 284.827L423.909 317.336L431.315 309.709C422.904 303.957 410.477 278.075 410.477 278.075L394.66 284.827Z" fill="#D03F23"/>
<path d="M395.414 246.692C395.414 246.692 393.28 256.569 406.586 272.949L410.477 277.95C410.477 277.95 434.704 270.323 454.914 271.699C452.906 270.573 450.897 269.073 449.014 267.447C441.608 260.946 435.708 251.318 432.319 240.065C429.306 230.187 428.679 220.56 430.059 212.182C425.792 218.184 409.724 240.44 395.414 246.692Z" fill="white"/>
<path d="M429.808 212.307C428.428 220.56 429.055 230.312 432.068 240.19C435.457 251.318 441.483 261.071 448.763 267.572C450.772 269.323 452.655 270.698 454.663 271.824C458.554 274.074 462.571 275.2 466.337 275.2C468.22 275.2 469.977 274.949 471.86 274.449C486.673 269.948 492.949 247.192 485.794 223.811C478.639 200.429 460.688 185.05 445.876 189.551C437.466 192.177 431.817 200.804 429.808 212.307ZM435.332 239.065C428.679 217.434 433.951 196.678 447.006 192.677C448.512 192.177 450.018 192.052 451.525 192.052C463.576 192.052 476.882 205.556 482.781 224.686C489.434 246.317 484.162 267.072 471.107 271.073C464.956 272.949 457.801 270.823 451.148 264.947C444.244 258.945 438.595 249.693 435.332 239.065Z" fill="#D03F23"/>
<path d="M447.131 192.802C434.076 196.803 428.804 217.559 435.457 239.19C438.721 249.818 444.37 258.945 451.148 264.947C427.675 221.185 451.65 192.052 451.65 192.052C450.019 192.052 448.512 192.302 447.131 192.802Z" fill="#2B2B39"/>
<path d="M451.525 192.052C451.525 192.052 427.674 221.185 451.023 264.947C457.676 270.823 464.831 272.949 470.982 271.073C484.037 267.072 489.309 246.317 482.656 224.686C476.881 205.556 463.575 192.052 451.525 192.052Z" fill="#C8DBE8"/>
<path d="M401.69 284.952C400.435 285.702 399.18 286.703 397.924 287.828C392.025 292.829 394.912 315.586 394.912 315.586L387.254 326.714L403.95 337.717L408.218 322.462C417.507 319.212 416.502 308.084 416.502 308.084C416.502 308.084 420.268 305.083 422.904 302.582C425.541 300.081 419.766 297.706 419.766 297.706C419.766 297.706 421.524 294.83 422.026 292.704C422.528 290.454 414.243 290.704 414.243 290.704L415.373 288.703C420.268 288.453 422.779 280.951 415.373 281.076C409.598 281.201 405.833 282.202 401.69 284.952Z" fill="#E69773"/>
<path d="M403.824 298.081C405.582 294.58 408.72 291.954 412.611 290.954C413.364 290.829 413.49 291.829 412.862 292.079C409.473 292.954 406.46 295.33 404.954 298.456C404.577 299.081 403.573 298.706 403.824 298.081Z" fill="#2B2B39"/>
<path d="M408.092 302.832C411.356 301.082 414.745 299.206 418.009 297.456C418.636 297.08 419.139 298.081 418.511 298.456L408.594 303.832C407.841 304.207 407.464 303.207 408.092 302.832Z" fill="#2B2B39"/>
</g>
<defs>
<clipPath id="clip0_174_526">
<rect width="471.009" height="748" fill="white" transform="matrix(-1 0 0 1 471.009 0)"/>
</clipPath>
</defs>
</svg>
