<svg width="54" height="48" viewBox="0 0 54 48" fill="none" xmlns="http://www.w3.org/2000/svg">
<g clip-path="url(#clip0_2333_3259)">
<path opacity="0.4" d="M45 6L6 18V30L15.5363 32.9344C15.1278 34.0791 14.9555 35.2947 15.0296 36.5078C15.1037 37.7209 15.4228 38.9065 15.9676 39.9929C16.5124 41.0794 17.2716 42.0442 18.1994 42.8293C19.1272 43.6144 20.2044 44.2034 21.366 44.5608C22.5277 44.9182 23.7497 45.0367 24.9584 44.909C26.167 44.7813 27.3373 44.4102 28.3986 43.8179C29.4599 43.2256 30.3903 42.4245 31.1336 41.4629C31.8769 40.5013 32.4177 39.3991 32.7234 38.2228L45 42V6ZM24 40.5C23.2585 40.4999 22.5286 40.3166 21.875 39.9664C21.2215 39.6162 20.6646 39.11 20.2539 38.4926C19.8432 37.8753 19.5914 37.1661 19.5209 36.428C19.4503 35.6899 19.5633 34.9458 19.8497 34.2619L28.4062 36.8953C28.1987 37.9114 27.6471 38.8248 26.8444 39.4815C26.0417 40.1382 25.0371 40.4979 24 40.5Z" fill="#FFFCF7"/>
<path d="M52.5 3H49.5C49.1022 3 48.7206 3.15804 48.4393 3.43934C48.158 3.72064 48 4.10218 48 4.5V43.5C48 43.8978 48.158 44.2794 48.4393 44.5607C48.7206 44.842 49.1022 45 49.5 45H52.5C52.8978 45 53.2794 44.842 53.5607 44.5607C53.842 44.2794 54 43.8978 54 43.5V4.5C54 4.10218 53.842 3.72064 53.5607 3.43934C53.2794 3.15804 52.8978 3 52.5 3ZM3 15C2.20435 15 1.44129 15.3161 0.87868 15.8787C0.316071 16.4413 0 17.2044 0 18L0 30C0 30.7956 0.316071 31.5587 0.87868 32.1213C1.44129 32.6839 2.20435 33 3 33C3.79565 33 4.55871 32.6839 5.12132 32.1213C5.68393 31.5587 6 30.7956 6 30V18C6 17.2044 5.68393 16.4413 5.12132 15.8787C4.55871 15.3161 3.79565 15 3 15Z" fill="#FFFCF7"/>
</g>
<defs>
<clipPath id="clip0_2333_3259">
<rect width="54" height="48" fill="white"/>
</clipPath>
</defs>
</svg>
