<svg width="48" height="48" viewBox="0 0 48 48" fill="none" xmlns="http://www.w3.org/2000/svg">
<g clip-path="url(#clip0_2333_3256)">
<path opacity="0.4" d="M3.34497 33.0062C0.921387 35.43 -0.276489 41.4932 0.0541988 47.9447C6.53247 48.2783 12.5783 47.068 14.9923 44.6536C18.769 40.8774 19.0115 35.8423 15.5837 32.4146C12.1564 28.9872 7.12134 29.2299 3.34497 33.0062ZM12.2472 40.6051C11.2412 41.6113 8.72168 42.1155 6.02197 41.9764C5.88464 39.2882 6.38379 36.7617 7.3938 35.7517C8.96704 34.1781 11.0654 34.077 12.4937 35.5053C13.9215 36.9337 13.8208 39.0317 12.2472 40.6051H12.2472ZM4.86951 14.4829L0.237303 23.7466C0.0929372 24.0622 0.0122946 24.4032 0 24.75C0.000153837 25.3467 0.237256 25.9189 0.65918 26.3408C1.0811 26.7627 1.65331 26.9998 2.25 27H11.012C13.2096 22.5551 16.7318 15.4338 18.3142 12.2505C18.3629 12.1648 18.408 12.0848 18.457 12H8.88941C7.35718 12.0015 5.55835 13.1133 4.86951 14.4829ZM35.7503 29.6786C32.5664 31.2731 25.4319 34.8049 21 36.9981V45.7696C21.0082 46.3614 21.2479 46.9263 21.6679 47.3433C22.0879 47.7603 22.6545 47.9961 23.2463 48C23.5907 47.987 23.9292 47.9063 24.2424 47.7627L33.4981 43.1323C34.8692 42.4468 35.9824 40.6479 35.9824 39.1143V29.5972C35.9887 29.5933 35.9942 29.5889 36 29.5851V29.5356C35.9151 29.5844 35.8363 29.6296 35.7503 29.6786Z" fill="#FFFCF7"/>
<path d="M47.3587 1.82959C47.293 1.54273 47.148 1.28013 46.9402 1.07175C46.7324 0.863368 46.4702 0.717613 46.1835 0.651123C43.1462 0 40.7226 0 38.3891 0C30.0314 0 23.7007 3.80768 18.4665 11.983C18.4141 12.0747 18.3661 12.1589 18.3141 12.2505C16.7317 15.4338 13.2095 22.5551 11.0119 27H11.9999C13.1818 27 14.3521 27.2328 15.4441 27.6851C16.536 28.1374 17.5282 28.8003 18.3639 29.636C19.1996 30.4718 19.8626 31.4639 20.3148 32.5558C20.7671 33.6478 20.9999 34.8181 20.9999 36V36.9981C25.4318 34.8049 32.5663 31.2731 35.7502 29.6786C35.8403 29.6272 35.9219 29.5803 36.0116 29.5289C44.1899 24.2732 47.9985 17.9496 47.9985 9.62787C48.0058 7.2757 48.012 4.88324 47.3587 1.82959ZM34.4999 18C33.6099 18 32.7399 17.7361 31.9999 17.2416C31.2599 16.7472 30.6831 16.0444 30.3425 15.2221C30.0019 14.3999 29.9128 13.4951 30.0864 12.6222C30.26 11.7493 30.6886 10.9474 31.3179 10.3181C31.9472 9.68874 32.749 9.26014 33.6219 9.08649C34.4948 8.91283 35.3996 9.00192 36.2219 9.34249C37.0441 9.68306 37.747 10.2598 38.2414 10.9998C38.7359 11.7398 38.9999 12.6098 38.9999 13.4998C38.9994 14.6932 38.5252 15.8375 37.6814 16.6813C36.8376 17.5252 35.6933 17.9995 34.4999 18ZM7.39373 35.7517C6.38371 36.7617 5.88457 39.2882 6.0219 41.9764C8.7216 42.1155 11.2411 41.6113 12.2471 40.6051C13.8207 39.0317 13.9214 36.9337 12.4936 35.5052C11.0654 34.077 8.96696 34.1781 7.39373 35.7517Z" fill="#FFFCF7"/>
</g>
<defs>
<clipPath id="clip0_2333_3256">
<rect width="48" height="48" fill="white"/>
</clipPath>
</defs>
</svg>
